<svg width="358" height="325" viewBox="0 0 358 325" fill="none" xmlns="http://www.w3.org/2000/svg">
<g id="undraw_build_wireframe_u9m2 1">
<g class="string">
<path id="Vector" d="M104.599 311.635C96.693 310.966 86.3913 305.128 87.0694 295.094C87.4057 290.119 90.7878 286.469 94.4602 283.908C99.54 280.366 105.614 278.469 111.57 277.391C118.439 276.148 125.447 275.989 132.418 275.882C139.299 275.776 146.169 275.585 153.031 275.107C166.551 274.163 179.997 272.36 193.288 269.708C206.321 267.116 219.178 263.707 231.783 259.502C238.039 257.412 244.228 255.116 250.349 252.614C256.061 250.275 261.786 247.858 267.204 244.819C274.342 240.815 285.822 233.35 283.366 222.735C282.065 217.106 277.373 213.105 272.834 210.489C267.345 207.327 261.253 205.582 255.289 203.894C227.548 196.042 199.774 188.332 172.017 180.552C165.539 178.736 159.029 176.997 152.67 174.702C146.716 172.554 140.725 169.933 135.619 165.88C131.159 162.339 126.927 157.348 126.223 151.224C125.64 146.146 127.856 141.469 130.848 137.793C138.255 128.692 149.819 123.844 160.437 120.687C173.628 116.764 187.3 114.925 200.51 111.074C211.176 107.964 222.382 103.231 230.235 94.6315C233.245 91.3343 235.746 87.2764 236.393 82.5872C237.027 77.9937 235.625 73.4602 233.052 69.7362C230.014 65.341 225.679 62.099 221.239 59.5647C216 56.6467 210.379 54.4754 204.538 53.1138C191.944 50.0375 179.037 49.2951 166.3 47.3502C160.053 46.3964 153.722 45.2802 147.733 43.0003C142.658 41.0687 137.041 38.2996 133.714 33.5015C126.849 23.6019 138.934 15.5126 145.943 12.1194C150.755 9.87252 155.72 7.96872 160.801 6.42228C161.881 6.07704 161.165 4.32207 160.091 4.66569C154.791 6.36076 149.507 8.21568 144.498 10.7244C140.28 12.8366 135.987 15.4435 132.976 19.3368C130.448 22.6067 129.187 26.9375 130.548 31.1445C132.159 36.1222 136.69 39.5123 140.832 41.8516C146.309 44.9449 152.306 46.6376 158.319 47.8651C164.653 49.1578 171.052 49.9673 177.444 50.7457C190.218 52.301 203.497 53.4304 215.563 58.7857C224.003 62.5318 235.805 70.1004 234.724 81.608C234.244 86.7162 231.275 91.0611 227.891 94.4193C223.801 98.4778 218.9 101.535 213.845 104.006C190.273 115.529 162.319 113.353 139.78 127.721C132.117 132.606 123.119 140.829 124.504 151.664C125.224 157.293 128.658 162.08 132.592 165.699C137.304 170.032 143.039 172.933 148.785 175.228C154.864 177.655 161.135 179.441 167.391 181.198C174.353 183.154 181.316 185.106 188.28 187.054L230.545 198.9L251.545 204.786C257.954 206.582 264.504 208.251 270.529 211.346C275.463 213.88 281.487 218.317 281.894 224.785C282.217 229.921 278.612 234.147 275.196 237.108C270.773 240.943 265.599 243.737 260.406 246.179C254.415 248.996 248.277 251.491 242.103 253.823C229.388 258.616 216.37 262.563 203.134 265.639C189.856 268.734 176.394 270.978 162.83 272.359C155.973 273.057 149.097 273.529 142.201 273.777C135.093 274.03 127.964 273.903 120.867 274.379C114.448 274.81 108.039 275.779 101.962 278.01C96.8884 279.872 91.6412 282.678 88.2146 287.232C86.9993 288.833 86.1345 290.671 85.6765 292.628C85.2185 294.585 85.1775 296.617 85.5562 298.591C86.4286 302.563 88.6451 306.113 91.8316 308.641C95.4274 311.494 99.802 313.194 104.381 313.517C105.511 313.613 105.733 311.731 104.599 311.635V311.635Z" fill="#E6E6E6"/>
</g>
<g class="boy">
<path id="Vector_2" d="M54.5532 49.6654L54.0731 61.6678L69.4374 72.2299L71.8381 49.6654H54.5532Z" fill="#FFB9B9"/>
<path id="Vector_3" d="M90.5635 111.118L95.845 126.481L106.408 162.968C106.408 162.968 116.971 180.731 107.848 181.211C98.7258 181.692 100.646 165.368 100.646 165.368L85.7621 139.443L82.4012 112.078L90.5635 111.118Z" fill="#FFB9B9"/>
<path id="Vector_4" d="M85.6345 289.551C85.6345 289.551 89.1394 299.113 92.713 303.733C96.2866 308.353 90.7887 311.308 90.7887 311.308L73.3275 309.246C73.3275 309.246 74.3796 293.964 73.0157 291.427L85.6345 289.551Z" fill="#FFB9B9"/>
<path id="Vector_5" d="M89.7843 306.397C89.7843 306.397 92.5861 299.441 94.1773 302.401C95.7685 305.361 102.107 309.04 102.107 309.04C102.107 309.04 118.95 311.979 106.426 317.075C93.9023 322.17 86.0361 317.677 86.0361 317.677C86.0361 317.677 74.2315 318.026 72.8676 315.489C71.5036 312.952 71.1145 303.2 73.5717 304.68C76.0289 306.159 87.1146 310.557 89.7843 306.397Z" fill="#2F2E41"/>
<path id="Vector_6" d="M52.6327 277.231C52.6327 277.231 51.1922 287.313 52.1525 293.074C53.1128 298.835 46.871 298.835 46.871 298.835L32.4669 288.753C32.4669 288.753 40.6292 275.79 40.6292 272.91L52.6327 277.231Z" fill="#FFB9B9"/>
<path id="Vector_7" d="M88.643 168.729C88.643 168.729 84.8019 215.298 77.1197 232.582C69.4375 249.865 57.434 283.472 57.434 283.472L37.2683 276.27C37.2683 276.27 46.871 232.582 55.5135 226.34L61.2751 156.727L88.643 168.729Z" fill="#2F2E41"/>
<path id="Vector_8" d="M81.4409 169.689L74.719 195.134L89.1231 290.193L70.8779 294.514L47.8313 187.453C47.8313 187.453 40.6292 173.53 44.9505 160.087C49.2717 146.645 81.4409 169.689 81.4409 169.689Z" fill="#2F2E41"/>
<path id="Vector_9" d="M48.3114 294.034C48.3114 294.034 54.0731 289.233 54.0731 292.594C54.0731 295.954 57.9142 302.196 57.9142 302.196C57.9142 302.196 71.358 312.758 57.9142 311.317C44.4704 309.877 39.669 302.196 39.669 302.196C39.669 302.196 29.106 296.914 29.106 294.034C29.106 291.153 33.3803 282.38 34.8442 284.846C36.308 287.313 43.9902 296.434 48.3114 294.034Z" fill="#2F2E41"/>
<path id="Vector_10" d="M62.7156 55.9066C70.6707 55.9066 77.1197 49.4582 77.1197 41.5037C77.1197 33.5492 70.6707 27.1008 62.7156 27.1008C54.7604 27.1008 48.3114 33.5492 48.3114 41.5037C48.3114 49.4582 54.7604 55.9066 62.7156 55.9066Z" fill="#FFB9B9"/>
<path id="Vector_11" d="M53.1128 55.9066L68.4772 67.9089L71.358 61.1876L74.719 66.9488C74.719 66.9488 91.5238 76.0706 91.5238 79.9113C91.5238 83.7521 92.0039 168.729 92.0039 168.729C92.0039 168.729 77.1197 183.132 62.7155 162.968C48.3114 142.804 43.5101 173.05 43.5101 173.05L39.669 113.998L33.9073 75.5905C33.9073 75.5905 34.8676 73.6701 37.7484 71.7497C40.6292 69.8293 50.7121 62.1478 50.7121 62.1478L53.1128 55.9066Z" fill="#FC895C"/>
<path id="Vector_12" d="M85.7621 77.0308L92.0039 79.4313L97.7656 112.078L84.8018 114.958L85.7621 77.0308Z" fill="#FC895C"/>
<path id="Vector_13" d="M24.3046 109.197L19.9833 131.282L49.2717 161.047C49.2717 161.047 56.4738 175.45 62.2354 169.209C67.9971 162.968 52.1525 154.806 52.1525 154.806L33.9073 125.04L38.2286 114.478L24.3046 109.197Z" fill="#FFB9B9"/>
<path id="Vector_14" d="M46.0032 32.1613C46.0032 32.1613 43.3346 26.2909 50.273 23.6225C50.273 23.6225 56.1439 14.0164 67.8857 20.4205C67.8857 20.4205 75.8915 23.6225 75.8915 32.1613C75.8915 40.7 78.5601 42.301 78.5601 42.301C78.5601 42.301 74.5861 38.2244 73.5187 35.0224C72.4512 31.8204 64.1497 31.0939 60.9474 34.2959C57.7451 37.498 49.7393 36.9643 49.7393 36.9643L50.273 48.7051C50.273 48.7051 47.6044 41.7674 46.537 41.7674C45.4695 41.7674 44.4021 32.1613 46.0032 32.1613Z" fill="#2F2E41"/>
<path id="Vector_15" d="M39.1888 75.5905H33.9073L21.4237 112.078L38.7087 117.359L48.3114 93.3541L39.1888 75.5905Z" fill="#FC895C"/>
<path id="Vector_16" opacity="0.3" d="M61.8138 271.449L55.7535 226.581L64.4104 264.47L61.8138 271.449Z" fill="black"/>
</g>
<g class="top_box">
<path id="Vector_17" d="M156.652 7.32567e-06C155.064 7.32567e-06 153.772 1.45827 153.772 3.25094V50.0397C153.772 51.8323 155.064 53.2906 156.652 53.2906H305.975C307.564 53.2906 308.856 51.8323 308.856 50.0397V3.25093C308.856 1.45825 307.564 0 305.975 0L156.652 7.32567e-06Z" fill="#E6E6E6"/>
<path id="Vector_18" d="M290.371 12.1224H172.257V18.8437H290.371V12.1224Z" fill="white"/>
<path id="Vector_19" d="M290.611 26.2852H172.497V29.4058H290.611V26.2852Z" fill="white"/>
<path id="Vector_20" d="M290.611 37.3274H172.497V40.448H290.611V37.3274Z" fill="white"/>
</g>
<g class="middle_box">
<path id="Vector_21" d="M156.652 67.5734C155.878 67.5854 155.139 67.9041 154.599 68.4596C154.059 69.0151 153.762 69.7621 153.772 70.5367V137.705C153.762 138.479 154.059 139.226 154.599 139.782C155.139 140.337 155.878 140.656 156.652 140.668H305.975C306.75 140.656 307.488 140.337 308.028 139.782C308.568 139.226 308.866 138.479 308.856 137.705V70.5367C308.866 69.7621 308.568 69.0151 308.028 68.4596C307.488 67.9041 306.75 67.5854 305.975 67.5734H156.652Z" fill="#E6E6E6"/>
<path id="Vector_22" d="M242.435 140.788H296.792C297.138 140.788 297.476 140.685 297.764 140.493C298.052 140.301 298.276 140.028 298.408 139.708C298.541 139.388 298.575 139.036 298.508 138.697C298.44 138.358 298.274 138.046 298.029 137.801L263.24 103.015C262.912 102.688 262.467 102.504 262.003 102.504C261.539 102.504 261.094 102.688 260.766 103.015L252.114 111.666C251.774 112.006 251.369 112.277 250.924 112.461C250.478 112.646 250.001 112.741 249.519 112.741C249.037 112.741 248.56 112.646 248.115 112.461C247.669 112.277 247.265 112.006 246.924 111.666L219.828 84.5713C219.499 84.2437 219.054 84.0597 218.59 84.0597C218.126 84.0597 217.681 84.2437 217.353 84.5713L164.358 137.561C164.114 137.806 163.947 138.118 163.879 138.457C163.812 138.796 163.847 139.148 163.979 139.468C164.112 139.788 164.336 140.061 164.624 140.253C164.911 140.445 165.25 140.548 165.596 140.548H242.505L242.435 140.788Z" fill="white"/>
<path id="Vector_23" d="M177.778 90.1379C181.491 90.1379 184.5 87.1287 184.5 83.4166C184.5 79.7045 181.491 76.6953 177.778 76.6953C174.066 76.6953 171.056 79.7045 171.056 83.4166C171.056 87.1287 174.066 90.1379 177.778 90.1379Z" fill="white"/>
</g>
<g class="bottom_box">
<path id="Vector_24" d="M156.652 156.391C155.878 156.403 155.139 156.722 154.599 157.277C154.059 157.833 153.762 158.58 153.772 159.354V226.522C153.762 227.297 154.059 228.044 154.599 228.599C155.139 229.155 155.878 229.474 156.652 229.486H305.975C306.75 229.474 307.488 229.155 308.028 228.599C308.568 228.044 308.866 227.297 308.856 226.522V159.354C308.866 158.58 308.568 157.833 308.028 157.277C307.488 156.722 306.75 156.403 305.975 156.391H156.652Z" fill="#3F3D56"/>
<path id="Vector_25" d="M242.435 229.606H296.792C297.138 229.606 297.476 229.503 297.764 229.311C298.051 229.118 298.276 228.845 298.408 228.525C298.541 228.206 298.575 227.854 298.508 227.515C298.44 227.175 298.274 226.863 298.029 226.619L263.24 191.833C262.911 191.505 262.467 191.322 262.003 191.322C261.539 191.322 261.094 191.505 260.765 191.833L252.114 200.483C251.774 200.824 251.369 201.094 250.924 201.279C250.478 201.464 250.001 201.558 249.519 201.558C249.037 201.558 248.56 201.464 248.114 201.279C247.669 201.094 247.265 200.824 246.924 200.483L219.827 173.389C219.499 173.062 219.054 172.878 218.59 172.878C218.126 172.878 217.681 173.062 217.353 173.389L164.358 226.379C164.114 226.623 163.947 226.935 163.879 227.274C163.812 227.614 163.847 227.966 163.979 228.285C164.112 228.605 164.336 228.878 164.624 229.071C164.911 229.263 165.25 229.366 165.596 229.366H242.505L242.435 229.606Z" fill="#FC895C"/>
<path id="Vector_26" d="M177.778 178.956C181.491 178.956 184.5 175.946 184.5 172.234C184.5 168.522 181.491 165.513 177.778 165.513C174.066 165.513 171.056 168.522 171.056 172.234C171.056 175.946 174.066 178.956 177.778 178.956Z" fill="#FC895C"/>
</g>
</g>
</svg>
