<svg xmlns="http://www.w3.org/2000/svg" xmlns:xlink="http://www.w3.org/1999/xlink" viewBox="0 0 519.6 614.28"><defs><style>.cls-1,.cls-13,.cls-4,.cls-5{fill:none;}.cls-2{clip-path:url(#clip-path);}.cls-3{fill:#a3d0c7;}.cls-13,.cls-4,.cls-5{stroke:#537d91;stroke-miterlimit:10;}.cls-4{stroke-width:9.14px;}.cls-5{stroke-width:7.31px;}.cls-6,.cls-9{font-size:111.13px;font-family:Cano;}.cls-6{fill:#f4783c;}.cls-7{letter-spacing:0.01em;}.cls-8{letter-spacing:-0.05em;}.cls-12,.cls-9{fill:#537d91;}.cls-10{opacity:0.14;}.cls-11{clip-path:url(#clip-path-5);}.cls-13{stroke-width:1.83px;}</style><clipPath id="clip-path" transform="translate(-43.12 -24.88)"><rect class="cls-1" width="612" height="792"/></clipPath><clipPath id="clip-path-5" transform="translate(-43.12 -24.88)"><rect class="cls-1" x="46.38" y="31.16" width="127.16" height="605.49"/></clipPath></defs><title>Asset 1</title><g id="Layer_2" data-name="Layer 2"><g id="Layer_1-2" data-name="Layer 1"><g class="cls-2"><g class="cls-2"><polygon class="cls-3" points="210.56 94.51 175.06 94.51 167.49 98.89 173.87 288.76 174.26 296.56 183.34 306.05 294.08 298.52 437.64 288.72 446.74 276.36 444.94 177.64 443.3 103.45 435.07 92.01 210.56 94.51"/><g class="cls-2"><path class="cls-4" d="M521.35,520.38c10.63-1.3,28.6-1.11,34.64-11.79,2.3-4,2.23-9,2.1-13.63q-3.09-109.4-5.85-218.78c0-38.34-2-76.8-3-115.13-1-37.68-.48-75.69-3.58-113.27A20.6,20.6,0,0,0,544,40.31c-3.51-7.14-16.17-6.21-22.71-6.28-66.67-.69-133.34-1.64-200-2.5L170.41,29.59l-10-.13-9,3q1.46,40,2.92,80l6.39,175.68q3.2,87.56,6.38,175.13,1.41,38.56,2.87,77.14c.2,5,.63,10.65,4.34,14.08,7.63,7,27.49,1.66,36.93.91l309.33-34.7v70.6L156.78,634.36,55.06,526.66C53.71,460.34,52.58,394,51.2,327.71,49.91,263.5,46.74,199.35,48,135.1c.32-16.45.85-32.9,2.3-49.29.44-5,1-10.11,3.74-14.29,3.32-5.1,9.24-7.86,15.06-9.62,9.24-2.8,17.94-6.18,27-9.43,18.46-6.61,36.93-13.2,55.32-20" transform="translate(-43.12 -24.88)"/><path class="cls-4" d="M481.46,331.91,219.8,349.76c-12.07,0-15.56-11.07-15.56-23.14l-7.18-201.43c0-12.06,5.89-24.73,17.95-24.73l266.05-2.39c12.07,0,18.75,15.06,18.75,27.12L503.4,310A22,22,0,0,1,481.46,331.91Z" transform="translate(-43.12 -24.88)"/><polyline class="cls-5" points="131.31 529.68 113.66 523.51 113.66 609.47"/><polygon class="cls-5" points="330.45 403.85 330.45 412.23 430.81 403.81 430.86 409.74 470.25 406.84 469.25 390.49 430.76 392.68 430.97 396.82 330.45 403.85"/></g><text class="cls-6" transform="translate(203.83 240.39) rotate(-2.56)"><tspan class="cls-7">C</tspan><tspan class="cls-8" x="65.23" y="0">S</tspan><tspan x="114.47" y="0">S</tspan></text><text class="cls-9" transform="translate(212.84 240.43) rotate(-2.56)"><tspan class="cls-7">C</tspan><tspan class="cls-8" x="65.23" y="0">S</tspan><tspan x="114.47" y="0">S</tspan></text><g class="cls-2"><g class="cls-10"><g class="cls-11"><path class="cls-12" d="M67,63.37c-3.36,1.36-6.7,2.73-10,4.14a3.63,3.63,0,0,0-2.74,3.58q-2.69,16.39-5.4,32.79l-1.5,26.29,8.15,396.89,98.75,104.55,2.59,2.74v-86l15.55,5.18-2.39-12L151.39,32.45C123.26,42.68,94.72,52.17,67,63.37" transform="translate(-43.12 -24.88)"/><path class="cls-13" d="M67,63.37c-3.36,1.36-6.7,2.73-10,4.14a3.63,3.63,0,0,0-2.74,3.58q-2.69,16.39-5.4,32.79l-1.5,26.29,8.15,396.89,98.75,104.55,2.59,2.74v-86l15.55,5.18-2.39-12L151.39,32.45C123.26,42.68,94.72,52.17,67,63.37Z" transform="translate(-43.12 -24.88)"/></g></g></g></g></g></g></g></svg>