<svg xmlns="http://www.w3.org/2000/svg" viewBox="0 0 612 792"><defs><style>.cls-1{fill:#a4d1c8;}.cls-2,.cls-3{fill:none;}.cls-2,.cls-3,.cls-7{stroke:#537d91;stroke-miterlimit:10;}.cls-2{stroke-width:9.14px;}.cls-3{stroke-width:7.31px;}.cls-4,.cls-6{font-size:111.13px;font-family:Cano;letter-spacing:0.01em;}.cls-4{fill:#ff7938;}.cls-5{letter-spacing:-0.05em;}.cls-6,.cls-7{fill:#537d91;}.cls-7{stroke-width:1.83px;opacity:0.14;}</style></defs><title>Artboard 5</title><g id="Layer_4" data-name="Layer 4"><polygon class="cls-1" points="256.96 183.48 221.47 183.48 213.89 187.87 220.27 377.73 220.66 385.53 229.74 395.03 340.48 387.49 484.04 377.69 493.14 365.34 491.35 266.62 489.7 192.43 481.47 180.98 256.96 183.48"/><path class="cls-2" d="M524.63,584.47c10.64-1.3,28.6-1.11,34.65-11.79,2.29-4,2.22-9,2.09-13.63q-3.07-109.39-5.85-218.78c0-38.34-2-76.8-3-115.13-1-37.68-.47-75.68-3.57-113.26a20.57,20.57,0,0,0-1.6-7.47c-3.51-7.15-16.17-6.22-22.7-6.29-66.68-.69-133.35-1.64-200-2.5L173.69,93.68l-10-.13-9,3,2.91,80L164,352.21l6.38,175.13q1.4,38.56,2.87,77.14c.19,5,.63,10.66,4.34,14.09,7.62,7,27.48,1.65,36.93.9l309.32-34.7v70.6L160.06,698.45,58.35,590.75C57,524.44,55.86,458.12,54.49,391.8c-1.3-64.21-4.46-128.36-3.24-192.61.31-16.45.84-32.9,2.3-49.29.44-5,1-10.11,3.74-14.28,3.31-5.11,9.23-7.87,15.05-9.63,9.24-2.8,17.94-6.18,27-9.43,18.46-6.61,36.94-13.2,55.33-20"/><path class="cls-2" d="M484.74,396,223.08,413.85c-12.06,0-15.55-11.07-15.55-23.14l-7.18-201.43c0-12.06,5.88-24.73,18-24.73l266-2.39c12.07,0,18.75,15.06,18.75,27.12l3.59,184.78A22,22,0,0,1,484.74,396Z"/><polyline class="cls-3" points="177.71 618.65 160.06 612.49 160.06 698.45"/><polygon class="cls-3" points="376.85 492.83 376.85 501.2 477.21 492.79 477.26 498.71 516.65 495.82 515.66 479.46 477.17 481.66 477.37 485.79 376.85 492.83"/><text class="cls-4" transform="translate(250.23 329.36) rotate(-2.56)">C<tspan class="cls-5" x="76.59" y="0">S</tspan><tspan x="142.38" y="0">S</tspan></text><text class="cls-6" transform="translate(259.24 329.36) rotate(-2.56)">C<tspan class="cls-5" x="76.59" y="0">S</tspan><tspan x="142.38" y="0">S</tspan></text><path class="cls-7" d="M70.23,127.47q-5,2-10,4.13a3.61,3.61,0,0,0-2.73,3.59Q54.8,151.57,52.08,168l-1.51,26.29,8.16,396.89L157.47,695.7l2.59,2.75v-86l15.56,5.18-2.4-12L154.68,96.55C126.54,106.77,98,116.26,70.23,127.47Z"/></g></svg>