<svg xmlns="http://www.w3.org/2000/svg" xmlns:xlink="http://www.w3.org/1999/xlink" viewBox="0 0 583.03 668.42"><defs><style>.cls-1,.cls-3,.cls-4,.cls-5,.cls-6{fill:none;}.cls-2{clip-path:url(#clip-path);}.cls-3,.cls-4{stroke:#f4783c;}.cls-3,.cls-4,.cls-5,.cls-6{stroke-miterlimit:10;}.cls-3,.cls-5{stroke-width:4.64px;}.cls-4,.cls-6{stroke-width:2.32px;}.cls-5,.cls-6{stroke:#537d91;}</style><clipPath id="clip-path" transform="translate(-14.48 -79.09)"><rect class="cls-1" width="612" height="792"/></clipPath></defs><title>Asset 1</title><g id="Layer_2" data-name="Layer 2"><g id="Layer_1-2" data-name="Layer 1"><g class="cls-2"><polyline class="cls-3" points="293.31 15.28 293.31 336.41 229.98 413.9 220.35 448.35 217.82 482.79 227.44 510.14 238.59 521.79 252.77 517.74 267.46 524.83 283.67 534.96 293.31 536.99"/><polyline class="cls-3" points="293.31 536.99 302.95 534.96 319.16 524.83 333.85 517.74 348.03 521.79 359.18 510.14 368.8 482.79 366.27 448.35 356.64 413.9 293.31 336.41 293.31 15.28 217.82 28.44 143.87 58.33 140.83 117.59 111.96 152.54 76 172.8 57.76 254.35 49.15 351.09 91 428.59 151.97 499.25"/><polyline class="cls-3" points="293.31 336.41 226.95 280.14 228.15 413.33 200.6 375.41 226.61 277.63 288.61 190.78 167.55 244.85 223.39 277.02 181.73 294.11 167.55 244.85 131.84 260.81 178.56 294.28"/><polyline class="cls-3" points="359.18 510.14 356.48 531.16 340.4 539.26 323.81 549.27 311.53 563.33 293.31 591.88 278.35 567.76 265.81 551.8 251.5 542.05 233.02 534.2 227 508.89"/><polyline class="cls-3" points="293.36 593.68 256.82 613.98 198.82 597.26 157.8 558.77 151.97 499.25 160.84 471.64 229.98 413.9"/><polyline class="cls-3" points="200.3 597.68 222.67 644.37 293.09 665.13 368.8 645.38 387.85 596.69"/><polygon class="cls-3" points="204.88 346.15 203.27 319.7 191.68 300.9 170.6 290.26 138.12 291.97 149.99 311.35 160.91 325.31 182.28 333.76 197.19 334.52 204.88 346.15"/><polyline class="cls-4" points="198.47 314.16 190.49 323.79 180.74 326.82 166.43 323.15 155.29 311.38 152.76 303.02 153.9 292.38"/><polygon class="cls-3" points="138.12 291.97 93.99 278.19 131.84 260.81 138.12 291.97"/><polyline class="cls-3" points="91 279.14 51.43 350.46 120.31 360.21 91 428.59 160.84 471.64 200.6 375.41 120.31 360.21 182.28 333.76 160.91 325.31 138.12 291.97 51.94 349.32"/><polyline class="cls-3" points="160.91 325.31 120.31 360.21 138.12 291.97"/><polyline class="cls-3" points="140.83 117.59 217.82 31.74 292.31 187.49"/><polyline class="cls-3" points="56.29 270.9 93.99 278.19 79.25 182.11 131.84 260.81 142.2 116.01"/><line class="cls-3" x1="131.84" y1="260.81" x2="217.82" y2="31.74"/><polyline class="cls-3" points="76 172.8 23.82 95.81 6.6 38.07 18.25 3.12 90.18 31.74 143.87 58.33"/><polyline class="cls-3" points="23.82 95.81 104.56 146.27 18.25 3.12"/><polyline class="cls-3" points="293.89 15.22 293.89 336.35 357.22 413.85 366.85 448.29 369.38 482.74 359.76 510.09 348.61 521.74 334.43 517.68 319.74 524.78 303.53 534.91 293.89 536.93"/><polyline class="cls-3" points="293.89 536.93 284.25 534.91 268.04 524.78 253.35 517.68 239.17 521.74 228.02 510.09 218.4 482.74 220.93 448.29 230.56 413.85 293.89 336.35 293.89 15.22 369.38 28.39 443.33 58.28 446.37 117.54 475.24 152.49 511.2 172.75 529.44 254.3 538.05 351.04 496.2 428.54 435.23 499.2"/><polyline class="cls-3" points="293.89 336.35 360.25 280.08 359.05 413.28 386.6 375.36 360.59 277.58 298.6 190.73 419.65 244.8 363.81 276.96 405.47 294.06 419.65 244.8 455.36 260.75 408.63 294.23"/><polyline class="cls-3" points="228.02 510.09 230.72 531.11 246.8 539.21 263.39 549.22 275.67 563.27 293.89 591.83 308.85 567.7 321.39 551.75 335.7 542 354.18 534.15 360.2 508.83"/><polyline class="cls-3" points="293.84 593.63 330.38 613.92 388.37 597.21 429.4 558.71 435.23 499.2 426.36 471.59 357.22 413.85"/><polygon class="cls-3" points="382.32 346.1 383.93 319.65 395.52 300.85 416.6 290.21 449.08 291.92 437.21 311.29 426.29 325.25 404.92 333.71 390.01 334.47 382.32 346.1"/><polyline class="cls-4" points="388.73 314.11 396.71 323.73 406.46 326.77 420.77 323.1 431.91 311.32 434.44 302.97 433.3 292.33"/><polygon class="cls-3" points="449.08 291.92 493.21 278.13 455.36 260.75 449.08 291.92"/><polyline class="cls-3" points="496.2 279.08 535.77 350.41 466.88 360.16 496.2 428.54 426.36 471.59 386.6 375.36 466.88 360.16 404.92 333.71 426.29 325.25 449.08 291.92 535.26 349.27"/><polyline class="cls-3" points="426.29 325.25 466.88 360.16 449.08 291.92"/><polyline class="cls-3" points="446.37 117.54 369.38 31.68 294.89 187.44"/><polyline class="cls-3" points="530.91 270.84 493.21 278.13 507.95 182.06 455.36 260.76 445 115.96"/><line class="cls-3" x1="455.36" y1="260.76" x2="369.38" y2="31.68"/><polyline class="cls-3" points="511.2 172.75 563.38 95.76 580.6 38.02 568.95 3.07 497.02 31.68 443.33 58.28"/><polyline class="cls-3" points="563.38 95.76 482.64 146.22 568.95 3.07"/><polyline class="cls-5" points="289.14 16.15 289.14 337.28 225.81 414.78 216.18 449.22 213.65 483.66 223.28 511.01 234.42 522.66 248.6 518.61 263.29 525.7 279.5 535.83 289.14 537.86"/><polyline class="cls-5" points="289.14 537.86 298.79 535.83 314.99 525.7 329.68 518.61 343.87 522.66 355.01 511.01 364.63 483.66 362.1 449.22 352.48 414.78 289.14 337.28 289.14 16.15 213.65 29.32 139.7 59.2 136.66 118.47 107.79 153.41 71.83 173.68 53.59 255.22 44.98 351.97 86.83 429.46 147.8 500.13"/><polyline class="cls-5" points="289.14 337.28 222.78 281.01 223.98 414.21 196.43 376.28 222.44 278.51 284.44 191.66 163.38 245.73 219.22 277.89 177.56 294.99 163.38 245.73 127.67 261.68 174.4 295.15"/><polyline class="cls-5" points="355.01 511.01 352.31 532.03 336.23 540.14 319.64 550.14 307.36 564.2 289.14 592.75 274.18 568.63 261.64 552.67 247.33 542.92 228.85 535.07 222.83 509.76"/><polyline class="cls-5" points="289.19 594.56 252.65 614.85 194.66 598.13 153.63 559.64 147.8 500.12 156.67 472.52 225.81 414.78"/><polyline class="cls-5" points="196.13 598.56 218.5 645.24 288.92 666.01 364.63 646.25 383.68 597.57"/><polygon class="cls-5" points="200.71 347.03 199.1 320.58 187.51 301.77 166.43 291.14 133.95 292.85 145.82 312.22 156.74 326.18 178.11 334.63 193.02 335.39 200.71 347.03"/><polyline class="cls-6" points="194.3 315.04 186.32 324.66 176.57 327.7 162.26 324.03 151.12 312.25 148.59 303.89 149.73 293.25"/><polygon class="cls-5" points="133.95 292.85 89.82 279.06 127.67 261.68 133.95 292.85"/><polyline class="cls-5" points="86.83 280.01 47.26 351.34 116.15 361.09 86.83 429.47 156.67 472.52 196.43 376.28 116.15 361.09 178.11 334.63 156.74 326.18 133.95 292.85 47.77 350.2"/><polyline class="cls-5" points="156.74 326.18 116.15 361.09 133.95 292.85"/><polyline class="cls-5" points="136.66 118.47 213.65 32.61 288.14 188.36"/><polyline class="cls-5" points="52.12 271.77 89.82 279.06 75.08 182.99 127.67 261.68 138.03 116.88"/><line class="cls-5" x1="127.67" y1="261.68" x2="213.65" y2="32.61"/><polyline class="cls-5" points="71.83 173.68 19.66 96.69 2.43 38.94 14.08 3.99 86.01 32.61 139.7 59.2"/><polyline class="cls-5" points="19.66 96.69 100.39 147.15 14.08 3.99"/><polyline class="cls-5" points="289.72 16.1 289.72 337.23 353.06 414.72 362.68 449.17 365.21 483.61 355.59 510.96 344.44 522.61 330.26 518.56 315.57 525.65 299.37 535.78 289.72 537.81"/><polyline class="cls-5" points="289.72 537.81 280.08 535.78 263.87 525.65 249.18 518.56 235 522.61 223.85 510.96 214.23 483.61 216.76 449.17 226.39 414.72 289.72 337.23 289.72 16.1 365.21 29.27 439.16 59.15 442.2 118.41 471.07 153.36 507.04 173.62 525.27 255.17 533.88 351.92 492.03 429.41 431.06 500.07"/><polyline class="cls-5" points="289.72 337.23 356.08 280.96 354.88 414.16 382.43 376.23 356.42 278.46 294.43 191.6 415.48 245.67 359.64 277.84 401.3 294.93 415.48 245.67 451.19 261.63 404.47 295.1"/><polyline class="cls-5" points="223.85 510.96 226.55 531.98 242.63 540.09 259.22 550.09 271.51 564.15 289.72 592.7 304.68 568.58 317.22 552.62 331.53 542.87 350.02 535.02 356.03 509.71"/><polyline class="cls-5" points="289.67 594.5 326.21 614.8 384.21 598.08 425.23 559.59 431.06 500.07 422.19 472.47 353.06 414.72"/><polygon class="cls-5" points="378.15 346.98 379.76 320.52 391.35 301.72 412.43 291.08 444.91 292.79 433.04 312.17 422.12 326.13 400.75 334.58 385.84 335.34 378.15 346.98"/><polyline class="cls-6" points="384.56 314.98 392.54 324.61 402.29 327.65 416.6 323.97 427.74 312.2 430.28 303.84 429.14 293.2"/><polygon class="cls-5" points="444.91 292.79 489.04 279.01 451.19 261.63 444.91 292.79"/><polyline class="cls-5" points="492.03 279.96 531.6 351.28 462.72 361.03 492.03 429.41 422.19 472.47 382.43 376.23 462.72 361.03 400.75 334.58 422.12 326.13 444.91 292.79 531.1 350.14"/><polyline class="cls-5" points="422.12 326.13 462.72 361.03 444.91 292.79"/><polyline class="cls-5" points="442.2 118.41 365.21 32.56 290.73 188.31"/><polyline class="cls-5" points="526.74 271.72 489.04 279.01 503.78 182.93 451.19 261.63 440.83 116.83"/><line class="cls-5" x1="451.19" y1="261.63" x2="365.21" y2="32.56"/><polyline class="cls-5" points="507.04 173.62 559.21 96.63 576.43 38.89 564.78 3.94 492.85 32.56 439.16 59.15"/><polyline class="cls-5" points="559.21 96.63 478.47 147.09 564.78 3.94"/></g></g></g></svg>