<svg width="575" height="369" viewBox="0 0 575 369" fill="none" xmlns="http://www.w3.org/2000/svg">
<g id="undraw_proud_coder_7ain 1">
<g clip-path="url(#clip0)">
<g class="window">
<path id="Vector" d="M556.161 8.22453H160.169V261.881H556.161V8.22453Z" fill="#E6E6E6"/>
<path id="Vector_2" d="M544.837 40.0394H171.492V246.875H544.837V40.0394Z" fill="white"/>
<path id="Vector_3" d="M555.992 8H160V24.8262H555.992V8Z" fill="#FC895C"/>
<path id="Vector_4" d="M172.502 19.7211C174.224 19.7211 175.62 18.3248 175.62 16.6024C175.62 14.8801 174.224 13.4838 172.502 13.4838C170.78 13.4838 169.384 14.8801 169.384 16.6024C169.384 18.3248 170.78 19.7211 172.502 19.7211Z" fill="white"/>
<path id="Vector_5" d="M184.337 19.7211C186.059 19.7211 187.455 18.3248 187.455 16.6024C187.455 14.8801 186.059 13.4838 184.337 13.4838C182.615 13.4838 181.219 14.8801 181.219 16.6024C181.219 18.3248 182.615 19.7211 184.337 19.7211Z" fill="white"/>
<path id="Vector_6" d="M196.172 19.7211C197.894 19.7211 199.29 18.3248 199.29 16.6024C199.29 14.8801 197.894 13.4838 196.172 13.4838C194.45 13.4838 193.054 14.8801 193.054 16.6024C193.054 18.3248 194.45 19.7211 196.172 19.7211Z" fill="white"/>
</g>
<g class="upper_text">
<path id="Vector_7" d="M458.037 51.4122H336.488C336.228 51.378 335.99 51.2506 335.818 51.0538C335.645 50.857 335.55 50.6042 335.55 50.3424C335.55 50.0806 335.645 49.8278 335.818 49.631C335.99 49.4342 336.228 49.3068 336.488 49.2726H458.037C458.296 49.3068 458.534 49.4342 458.707 49.631C458.88 49.8278 458.975 50.0806 458.975 50.3424C458.975 50.6042 458.88 50.857 458.707 51.0538C458.534 51.2506 458.296 51.378 458.037 51.4122V51.4122Z" fill="#CCCCCC"/>
<path id="Vector_8" d="M373.815 63.1798H296.534C296.275 63.1456 296.036 63.0182 295.864 62.8214C295.691 62.6246 295.596 62.3718 295.596 62.11C295.596 61.8482 295.691 61.5954 295.864 61.3986C296.036 61.2018 296.275 61.0744 296.534 61.0402H373.815C374.075 61.0744 374.313 61.2018 374.486 61.3986C374.658 61.5954 374.753 61.8482 374.753 62.11C374.753 62.3718 374.658 62.6246 374.486 62.8214C374.313 63.0182 374.075 63.1456 373.815 63.1798V63.1798Z" fill="#CCCCCC"/>
<path id="Vector_9" d="M458.037 63.3938H380.756C380.496 63.3596 380.258 63.2322 380.085 63.0354C379.913 62.8386 379.818 62.5858 379.818 62.324C379.818 62.0622 379.913 61.8094 380.085 61.6126C380.258 61.4158 380.496 61.2884 380.756 61.2542H458.037C458.296 61.2884 458.534 61.4158 458.707 61.6126C458.88 61.8094 458.975 62.0622 458.975 62.324C458.975 62.5858 458.88 62.8386 458.707 63.0354C458.534 63.2322 458.296 63.3596 458.037 63.3938H458.037Z" fill="#CCCCCC"/>
<path id="Vector_10" d="M374.003 74.9475H296.722C296.462 74.9133 296.224 74.7859 296.052 74.5891C295.879 74.3923 295.784 74.1394 295.784 73.8777C295.784 73.6159 295.879 73.3631 296.052 73.1663C296.224 72.9695 296.462 72.8421 296.722 72.8079H374.003C374.262 72.8421 374.501 72.9695 374.673 73.1663C374.846 73.3631 374.941 73.6159 374.941 73.8777C374.941 74.1394 374.846 74.3923 374.673 74.5891C374.501 74.7859 374.262 74.9133 374.003 74.9475V74.9475Z" fill="#CCCCCC"/>
<path id="Vector_11" d="M374.19 86.7151H296.909C296.65 86.6809 296.412 86.5535 296.239 86.3567C296.067 86.1599 295.971 85.9071 295.971 85.6453C295.971 85.3836 296.067 85.1307 296.239 84.9339C296.412 84.7371 296.65 84.6097 296.909 84.5755H374.19C374.45 84.6097 374.688 84.7371 374.861 84.9339C375.033 85.1307 375.128 85.3836 375.128 85.6453C375.128 85.9071 375.033 86.1599 374.861 86.3567C374.688 86.5535 374.45 86.6809 374.19 86.7151V86.7151Z" fill="#CCCCCC"/>
<path id="Vector_12" d="M409.267 74.9475H387.133C386.874 74.9133 386.635 74.7859 386.463 74.5891C386.29 74.3923 386.195 74.1394 386.195 73.8777C386.195 73.6159 386.29 73.3631 386.463 73.1663C386.635 72.9695 386.874 72.8421 387.133 72.8079H409.267C409.527 72.8421 409.765 72.9695 409.937 73.1663C410.11 73.3631 410.205 73.6159 410.205 73.8777C410.205 74.1394 410.11 74.3923 409.937 74.5891C409.765 74.7859 409.527 74.9133 409.267 74.9475V74.9475Z" fill="#CCCCCC"/>
<path id="Vector_13" d="M409.267 86.5012H387.133C386.874 86.4669 386.635 86.3396 386.463 86.1428C386.29 85.9459 386.195 85.6931 386.195 85.4314C386.195 85.1696 386.29 84.9168 386.463 84.72C386.635 84.5232 386.874 84.3958 387.133 84.3616H409.267C409.527 84.3958 409.765 84.5232 409.937 84.72C410.11 84.9168 410.205 85.1696 410.205 85.4314C410.205 85.6931 410.11 85.9459 409.937 86.1428C409.765 86.3396 409.527 86.4669 409.267 86.5012V86.5012Z" fill="#CCCCCC"/>
<path id="Vector_14" d="M446.407 86.5012H424.273C424.014 86.4669 423.776 86.3396 423.603 86.1428C423.43 85.9459 423.335 85.6931 423.335 85.4314C423.335 85.1696 423.43 84.9168 423.603 84.72C423.776 84.5232 424.014 84.3958 424.273 84.3616H446.407C446.667 84.3958 446.905 84.5232 447.077 84.72C447.25 84.9168 447.345 85.1696 447.345 85.4314C447.345 85.6931 447.25 85.9459 447.077 86.1428C446.905 86.3396 446.667 86.4669 446.407 86.5012V86.5012Z" fill="#CCCCCC"/>
<path id="Vector_15" d="M318.105 51.4122H295.971C295.712 51.378 295.474 51.2506 295.301 51.0538C295.129 50.857 295.034 50.6042 295.034 50.3424C295.034 50.0806 295.129 49.8278 295.301 49.631C295.474 49.4342 295.712 49.3068 295.971 49.2726H318.105C318.365 49.3068 318.603 49.4342 318.776 49.631C318.948 49.8278 319.043 50.0806 319.043 50.3424C319.043 50.6042 318.948 50.857 318.776 51.0538C318.603 51.2506 318.365 51.378 318.105 51.4122Z" fill="#CCCCCC"/>
</g>
<g class="bottom_text">
<path id="Vector_16" d="M373.534 186.338H296.253C295.993 186.304 295.755 186.177 295.583 185.98C295.41 185.783 295.315 185.53 295.315 185.269C295.315 185.007 295.41 184.754 295.583 184.557C295.755 184.36 295.993 184.233 296.253 184.199H373.534C373.793 184.233 374.032 184.36 374.204 184.557C374.377 184.754 374.472 185.007 374.472 185.269C374.472 185.53 374.377 185.783 374.204 185.98C374.032 186.177 373.793 186.304 373.534 186.338H373.534Z" fill="#CCCCCC"/>
<path id="Vector_17" d="M373.159 209.874H295.878C295.618 209.84 295.38 209.712 295.207 209.515C295.035 209.319 294.94 209.066 294.94 208.804C294.94 208.542 295.035 208.289 295.207 208.093C295.38 207.896 295.618 207.768 295.878 207.734H373.159C373.418 207.768 373.656 207.896 373.829 208.093C374.002 208.289 374.097 208.542 374.097 208.804C374.097 209.066 374.002 209.319 373.829 209.515C373.656 209.712 373.418 209.84 373.159 209.874H373.159Z" fill="#CCCCCC"/>
<path id="Vector_18" d="M373.346 221.641H296.065C295.806 221.607 295.568 221.48 295.395 221.283C295.222 221.086 295.127 220.833 295.127 220.572C295.127 220.31 295.222 220.057 295.395 219.86C295.568 219.663 295.806 219.536 296.065 219.502H373.346C373.606 219.536 373.844 219.663 374.017 219.86C374.189 220.057 374.284 220.31 374.284 220.572C374.284 220.833 374.189 221.086 374.017 221.283C373.844 221.48 373.606 221.607 373.346 221.641H373.346Z" fill="#CCCCCC"/>
<path id="Vector_19" d="M406.36 210.088H384.226C383.966 210.054 383.728 209.926 383.556 209.729C383.383 209.533 383.288 209.28 383.288 209.018C383.288 208.756 383.383 208.503 383.556 208.307C383.728 208.11 383.966 207.982 384.226 207.948H406.36C406.619 207.982 406.857 208.11 407.03 208.307C407.202 208.503 407.298 208.756 407.298 209.018C407.298 209.28 407.202 209.533 407.03 209.729C406.857 209.926 406.619 210.054 406.36 210.088V210.088Z" fill="#CCCCCC"/>
<path id="Vector_20" d="M406.36 221.641H384.226C383.966 221.607 383.728 221.48 383.556 221.283C383.383 221.086 383.288 220.833 383.288 220.572C383.288 220.31 383.383 220.057 383.556 219.86C383.728 219.663 383.966 219.536 384.226 219.502H406.36C406.619 219.536 406.857 219.663 407.03 219.86C407.202 220.057 407.298 220.31 407.298 220.572C407.298 220.833 407.202 221.086 407.03 221.283C406.857 221.48 406.619 221.607 406.36 221.641V221.641Z" fill="#CCCCCC"/>
<path id="Vector_21" d="M443.5 210.088H421.366C421.106 210.054 420.868 209.926 420.696 209.729C420.523 209.533 420.428 209.28 420.428 209.018C420.428 208.756 420.523 208.503 420.696 208.307C420.868 208.11 421.106 207.982 421.366 207.948H443.5C443.759 207.982 443.997 208.11 444.17 208.307C444.342 208.503 444.438 208.756 444.438 209.018C444.438 209.28 444.342 209.533 444.17 209.729C443.997 209.926 443.759 210.054 443.5 210.088V210.088Z" fill="#CCCCCC"/>
<path id="Vector_22" d="M458.131 198.106H336.582C336.322 198.072 336.084 197.945 335.911 197.748C335.739 197.551 335.644 197.298 335.644 197.036C335.644 196.775 335.739 196.522 335.911 196.325C336.084 196.128 336.322 196.001 336.582 195.967H458.131C458.39 196.001 458.628 196.128 458.801 196.325C458.973 196.522 459.068 196.775 459.068 197.036C459.068 197.298 458.973 197.551 458.801 197.748C458.628 197.945 458.39 198.072 458.131 198.106V198.106Z" fill="#CCCCCC"/>
<path id="Vector_23" d="M318.199 198.106H296.065C295.806 198.072 295.568 197.945 295.395 197.748C295.222 197.551 295.127 197.298 295.127 197.036C295.127 196.775 295.222 196.522 295.395 196.325C295.568 196.128 295.806 196.001 296.065 195.967H318.199C318.459 196.001 318.697 196.128 318.869 196.325C319.042 196.522 319.137 196.775 319.137 197.036C319.137 197.298 319.042 197.551 318.869 197.748C318.697 197.945 318.459 198.072 318.199 198.106V198.106Z" fill="#CCCCCC"/>
</g>
<g class="bracket">
<path id="Vector_24" d="M354.87 105.723L324.858 135.366L354.87 165.008L361.623 158.255L338.926 135.553L361.81 112.665L354.87 105.723Z" fill="#FC895C"/>
<path id="Vector_25" d="M399.138 105.723L429.15 135.366L399.138 165.008L392.386 158.255L415.082 135.553L392.198 112.665L399.138 105.723Z" fill="#FC895C"/>
</g>
<g class="girl">
<path id="Vector_26" d="M97.029 298.601V331.069H87.7538L81.571 297.054L97.029 298.601Z" fill="#FFB9B9"/>
<path id="Vector_27" d="M23.6023 298.601V331.069H14.3278L8.14441 297.054L23.6023 298.601Z" fill="#FFB9B9"/>
<path id="Vector_28" d="M72.5314 59.256C72.5314 59.256 57.6272 48.5417 55.7642 53.6659C53.9011 58.7901 66.9423 68.107 66.9423 68.107L72.5314 59.256Z" fill="#FFB9B9"/>
<path id="Vector_29" d="M19.668 72.9983C19.668 91.5222 27.642 92.0978 40.6321 92.0978C53.6222 92.0978 66.7094 91.5222 66.7094 72.9983C66.7094 54.4744 56.1788 39.4577 43.1887 39.4577C30.1985 39.4577 19.668 54.4744 19.668 72.9983Z" fill="#2F2E41"/>
<path id="Vector_30" d="M51.5723 72.7654C51.5723 72.7654 49.7093 86.7406 58.5587 87.6723C67.4081 88.604 29.6818 91.399 29.6818 91.399C29.6818 91.399 39.4627 82.548 34.3393 75.5604C29.216 68.5728 51.5723 72.7654 51.5723 72.7654Z" fill="#FFB9B9"/>
<path id="Vector_31" d="M98.6138 322.456L101.874 349.941C101.874 349.941 118.176 369.972 107.929 368.574C97.6823 367.177 91.1617 368.872 91.1617 367.008C91.1617 365.145 90.9208 358.487 89.5235 358.487C88.1262 358.487 86.9699 369 86.9699 369C86.9699 369 82.7781 368.683 82.3123 368.217C81.8465 367.751 81.3808 341.09 81.3808 341.09C81.3808 341.09 79.9835 333.171 82.7781 329.444C85.5726 325.717 85.1068 322.456 85.1068 322.456L98.6138 322.456Z" fill="#2F2E41"/>
<path id="Vector_32" d="M24.4144 322.154L27.6747 349.639C27.6747 349.639 43.9762 369.67 33.7296 368.272C23.4829 366.875 16.9623 368.569 16.9623 366.706C16.9623 364.843 16.7214 358.185 15.3241 358.185C13.9268 358.185 12.7705 368.698 12.7705 368.698C12.7705 368.698 8.57868 368.381 8.11292 367.915C7.64716 367.449 7.18141 340.788 7.18141 340.788C7.18141 340.788 5.78414 332.868 8.57868 329.142C11.3732 325.415 10.9075 322.154 10.9075 322.154H24.4144Z" fill="#2F2E41"/>
<path id="Vector_33" d="M74.3944 158.946C74.3944 158.946 89.2986 201.337 90.2301 210.654C91.1617 219.971 89.2986 251.648 89.2986 251.648C89.2986 251.648 102.806 306.381 100.011 306.847C97.2165 307.312 81.654 309.521 81.1883 307.192C80.7225 304.863 79.062 301.257 79.5278 299.859C79.9935 298.461 78.1305 293.337 78.1305 290.542C78.1305 287.747 71.5998 273.077 72.0656 270.748C72.5313 268.419 64.1477 233.946 62.7504 231.151C61.3532 228.356 57.6271 208.791 57.6271 208.791C57.6271 208.791 36.668 266.089 36.2023 267.487C35.7365 268.884 33.8735 271.214 34.805 271.68C35.7365 272.145 33.4078 275.406 33.4078 275.406C33.4078 275.406 28.5815 294.735 28.5815 295.666C28.5815 296.598 29.513 307.144 27.65 307.61C25.787 308.075 6.75703 308.046 5.82551 304.785C4.894 301.524 15.709 263.76 15.709 263.76C15.709 263.76 23.6269 240.002 21.2981 233.946C18.9693 227.891 23.6269 191.555 25.4899 188.76C27.3529 185.965 27.8187 169.195 27.8187 169.195L74.3944 158.946Z" fill="#2F2E41"/>
<path id="Vector_34" d="M43.4216 80.4518C51.653 80.4518 58.3258 73.7777 58.3258 65.5448C58.3258 57.312 51.653 50.6379 43.4216 50.6379C35.1902 50.6379 28.5174 57.312 28.5174 65.5448C28.5174 73.7777 35.1902 80.4518 43.4216 80.4518Z" fill="#FFB9B9"/>
<path id="Vector_35" d="M51.5723 84.4114C51.5723 84.4114 34.8051 84.8773 33.8736 83.4797C32.9421 82.0822 9.65421 86.7406 9.65421 96.0574C9.65421 105.374 23.1612 141.71 23.1612 141.71C23.1612 141.71 28.2845 167.797 26.8872 170.592C25.49 173.387 78.5863 164.536 77.189 159.878C75.7917 155.219 67.8738 144.971 78.1205 136.12C88.3671 127.269 92.559 117.952 92.559 117.952L80.4493 85.8089C80.4493 85.8089 68.3396 83.9455 65.545 85.8089C62.7505 87.6723 51.5723 84.4114 51.5723 84.4114Z" fill="#FC895C"/>
<path id="Vector_36" d="M89.2986 120.281L92.5589 117.952C92.5589 117.952 122.833 86.2748 114.915 80.2188C106.997 74.1629 95.3535 68.5728 89.7644 68.107C84.1753 67.6411 79.5178 63.4486 79.5178 63.4486C79.5178 63.4486 73.4629 52.7342 68.8053 59.7218C64.1478 66.7094 59.0244 69.0386 65.545 71.3678C72.0656 73.697 76.2574 72.7654 79.5178 75.0946C82.7781 77.4238 95.3535 81.1505 89.7644 82.548C86.5594 83.325 83.4392 84.4173 80.4493 85.8089L74.3944 96.5233L89.2986 120.281Z" fill="#FC895C"/>
<path id="Vector_37" d="M36.6681 199.008C36.6681 199.008 48.7778 216.71 39.9284 215.779C31.079 214.847 26.8872 202.735 26.8872 202.735L36.6681 199.008Z" fill="#FFB9B9"/>
<path id="Vector_38" d="M12.9145 102.728L9.6542 105.057C9.6542 105.057 -1.05821 163.753 9.6542 179.126C20.3666 194.499 21.2981 193.567 21.2981 193.567C21.2981 193.567 23.1612 192.17 24.0927 201.487C25.0242 210.803 23.6269 214.53 26.4215 214.53C29.216 214.53 41.7914 211.735 40.8599 209.406C39.9284 207.077 33.8736 193.567 33.4078 190.306C32.9421 187.045 30.6133 179.592 29.6818 175.399C28.7503 171.207 33.8736 168.878 31.5448 160.027C29.216 151.176 25.9557 135.337 25.9557 132.076C25.9557 128.815 12.9145 102.728 12.9145 102.728Z" fill="#FC895C"/>
<path id="Vector_39" d="M28.9831 52.2684C28.9831 57.2853 35.8645 61.3523 44.3531 61.3523C52.8417 61.3523 60.6546 64.04 60.6546 59.0231C60.6546 54.0062 52.8417 43.1845 44.3531 43.1845C35.8645 43.1845 28.9831 47.2515 28.9831 52.2684Z" fill="#2F2E41"/>
<path id="Vector_40" d="M66.5699 76.1422C66.5699 76.1422 67.1972 93.0295 50.419 92.0978C33.6407 91.1661 52.6864 77.6628 52.6864 77.6628L66.5699 76.1422Z" fill="#2F2E41"/>
</g>
</g>
</g>
<defs>
<clipPath id="clip0">
<rect width="575" height="369" fill="white"/>
</clipPath>
</defs>
</svg>
